<svg xmlns="http://www.w3.org/2000/svg" viewBox="0 0 835.87 1024" fill="none">
  <path
    fill="currentColor"
    d="M167.84,855.66c4.71-1.33,6.69-1.18,17.94-8.36,0,0,33.93-18.52,56.82-32.8,0,0,22.51-13.02,55.66-30.75,0,0,31.58-10.68,79.35-69.57,0,0,78.18-92.8,103.46-126.39,0,0,86.46-108.34,121.16-184.15,0,0,37.51-66.37,63.95-159.98,0,0,19.35-53.49,57.65-111,0,0,10.81-15.22,12.14-20.45,0,0,1.28-2.47,4.05-6.02,0,0,15.37-18.55,20.91-30.01,0,0,15.42-18.96,30.78-33.96,0,0,38.11-35.02,44.13-42.2,0,0-120.86,38.72-322.36,292.89,0,0-40.3,56.2-78.14,83.08,0,0-96.47,98.99-112.37,107.53,0,0-27.61,31.1-50.44,53.44,0,0-82.68,68.85-115.62,150.7,0,0-17.42,28.71-39.22,166.48,0,0-10.83,34.38-16.34,43.28,0,0-15.89,44.04-20.23,53.66,0,0-10.27,23.45-23.74,37.66,0,0-24.44,31.2-49.7,20.94,0,0-9.11-1.58-7.53,2.37,0,0,18.17,13.42,37.14,11.84,0,0,2.35,1.95,25.67-23.3,0,0,19.32-18.17,32.36-49.72,0,0,14.76-31.96,16.59-39.55,0,0,44.84-127.67,54.76-130.78,0,0,128.23-185.75,275.97-292.16,0,0,67.17-63.52,125.79-158.81,0,0,10.96-6.12,2.45,6.09,0,0-42.77,97.75-205.19,235.91,0,0-96.5,73.3-213.7,285.91,0,0,11.1-.5,15.8-1.8Z"
  />
</svg>
